<svg width="169" height="145" viewBox="0 0 169 145" fill="none" xmlns="http://www.w3.org/2000/svg">
<g id="Bubbles">
<path id="Fill 1080" fill-rule="evenodd" clip-rule="evenodd" d="M104.816 93.9391C101.747 101.133 93.4239 104.478 86.235 101.411C79.0368 98.3443 75.6911 90.026 78.7603 82.8311C81.8294 75.6381 90.1428 72.2918 97.341 75.3588C104.53 78.4268 107.876 86.7442 104.816 93.9391Z" fill="#80D6DC"/>
<path id="Fill 1081" fill-rule="evenodd" clip-rule="evenodd" d="M78.6891 82.779C78.0958 84.1759 77.7489 85.615 77.6211 87.0495C79.0268 88.8174 80.8707 90.272 83.0889 91.2201C90.2089 94.2686 98.4517 90.9426 101.491 83.7921C102.085 82.3961 102.422 80.9571 102.55 79.5226C101.154 77.7556 99.3097 76.3009 97.0916 75.352C89.9624 72.3034 81.7288 75.6295 78.6891 82.779Z" fill="#B1E6DC"/>
<path id="Fill 1082" fill-rule="evenodd" clip-rule="evenodd" d="M90.4714 91.7071C91.5151 89.4051 94.3357 88.3346 96.7897 89.3157C99.2343 90.2978 100.372 92.9598 99.3283 95.2619C98.2846 97.5639 95.4546 98.6344 93.01 97.6523C90.5654 96.6712 89.4278 94.0091 90.4714 91.7071Z" fill="#C8F1F0"/>
<path id="Fill 1083" fill-rule="evenodd" clip-rule="evenodd" d="M91.0142 80.0362C90.4652 81.3312 88.9665 81.933 87.6682 81.3817C86.3699 80.8287 85.7687 79.3316 86.3264 78.0374C86.8753 76.7424 88.374 76.1397 89.6636 76.6919C90.9619 77.244 91.5631 78.7411 91.0142 80.0362Z" fill="#C8F1F0"/>
<path id="Fill 1084" fill-rule="evenodd" clip-rule="evenodd" d="M132.845 137.932C130.513 143.4 124.193 145.942 118.729 143.61C113.255 141.28 110.715 134.958 113.046 129.49C115.377 124.023 121.698 121.48 127.171 123.811C132.635 126.142 135.176 132.464 132.845 137.932Z" fill="#80D6DC"/>
<path id="Fill 1085" fill-rule="evenodd" clip-rule="evenodd" d="M113.006 129.365C112.547 130.413 112.282 131.492 112.181 132.568C113.263 133.893 114.693 134.984 116.407 135.695C121.909 137.982 128.281 135.487 130.628 130.124C131.087 129.077 131.352 127.998 131.444 126.923C130.362 125.596 128.941 124.506 127.226 123.795C121.716 121.508 115.353 124.002 113.006 129.365Z" fill="#B1E6DC"/>
<path id="Fill 1086" fill-rule="evenodd" clip-rule="evenodd" d="M122.089 135.949C122.822 134.079 124.822 133.209 126.547 134.006C128.272 134.805 129.074 136.967 128.341 138.837C127.599 140.708 125.607 141.578 123.882 140.78C122.158 139.984 121.347 137.82 122.089 135.949Z" fill="#C8F1F0"/>
<path id="Fill 1087" fill-rule="evenodd" clip-rule="evenodd" d="M122.216 126.84C121.794 127.846 120.622 128.315 119.619 127.886C118.615 127.456 118.139 126.291 118.571 125.285C119.002 124.277 120.164 123.809 121.177 124.239C122.181 124.668 122.648 125.832 122.216 126.84Z" fill="#C8F1F0"/>
<path id="Fill 1088" fill-rule="evenodd" clip-rule="evenodd" d="M48.6069 75.7909C41.1658 79.794 31.8945 77.0082 27.8921 69.5704C23.8896 62.1317 26.6719 52.8574 34.113 48.8543C41.5448 44.8521 50.8253 47.637 54.8278 55.0747C58.8302 62.5134 56.0479 71.7887 48.6069 75.7909Z" fill="#80D6DC"/>
<path id="Fill 1089" fill-rule="evenodd" clip-rule="evenodd" d="M34.361 48.8351C32.9258 49.6088 31.6643 50.5856 30.5947 51.705C30.5947 54.1342 31.1706 56.5999 32.4047 58.8901C36.363 66.2498 45.5319 69.0063 52.8907 65.0452C54.3259 64.2715 55.5875 63.2938 56.657 62.1753C56.657 59.7461 56.0811 57.2804 54.847 54.9902C50.8888 47.6305 41.7107 44.8749 34.361 48.8351Z" fill="#B1E6DC"/>
<path id="Fill 1090" fill-rule="evenodd" clip-rule="evenodd" d="M38.3789 64.066C40.8566 62.7314 43.9536 63.6594 45.2849 66.1392C46.6162 68.619 45.6917 71.7106 43.2141 73.0444C40.7272 74.379 37.6394 73.4501 36.3081 70.9712C34.9676 68.4914 35.9013 65.3998 38.3789 64.066Z" fill="#C8F1F0"/>
<path id="Fill 1091" fill-rule="evenodd" clip-rule="evenodd" d="M46.1003 54.6186C44.7252 55.3599 43.0085 54.8441 42.2625 53.4666C41.5255 52.089 42.0378 50.3718 43.413 49.6305C44.7971 48.8891 46.5138 49.4049 47.2508 50.7825C47.9968 52.16 47.4755 53.8772 46.1003 54.6186Z" fill="#C8F1F0"/>
<path id="Fill 1092" fill-rule="evenodd" clip-rule="evenodd" d="M110.223 28.4514C111.559 34.7229 107.562 40.893 101.289 42.2341C95.0175 43.5742 88.8468 39.5759 87.5113 33.3045C86.1666 27.033 90.1638 20.862 96.4358 19.5218C102.708 18.1826 108.879 22.18 110.223 28.4514Z" fill="#80D6DC"/>
<path id="Fill 1093" fill-rule="evenodd" clip-rule="evenodd" d="M87.5112 33.4891C87.769 34.7302 88.2202 35.879 88.8187 36.9213C90.6049 37.4523 92.5477 37.554 94.4997 37.1322C100.761 35.7744 104.766 29.5221 103.422 23.168C103.164 21.9268 102.713 20.7781 102.114 19.7357C100.328 19.2047 98.3852 19.103 96.4332 19.5248C90.163 20.8826 86.167 27.135 87.5112 33.4891Z" fill="#B1E6DC"/>
<path id="Fill 1094" fill-rule="evenodd" clip-rule="evenodd" d="M99.8003 33.6901C99.3706 31.5481 100.642 29.4411 102.632 28.9835C104.623 28.5259 106.578 29.8912 106.999 32.0322C107.428 34.1741 106.157 36.2811 104.167 36.7387C102.176 37.1964 100.221 35.832 99.8003 33.6901Z" fill="#C8F1F0"/>
<path id="Fill 1095" fill-rule="evenodd" clip-rule="evenodd" d="M94.5681 25.5878C94.8227 26.8126 94.0494 28.0167 92.8232 28.2781C91.5971 28.5395 90.3993 27.7601 90.1352 26.5362C89.8712 25.3113 90.654 24.1082 91.8707 23.8468C93.0968 23.5845 94.304 24.3648 94.5681 25.5878Z" fill="#C8F1F0"/>
<path id="Fill 1096" fill-rule="evenodd" clip-rule="evenodd" d="M25.9508 14.7255C25.0086 21.861 18.4672 26.8861 11.337 25.9501C4.19771 25.015 -0.821539 18.4713 0.111643 11.3359C1.04482 4.20133 7.58615 -0.823826 14.7254 0.112161C21.8557 1.04724 26.884 7.591 25.9508 14.7255Z" fill="#80D6DC"/>
<path id="Fill 1097" fill-rule="evenodd" clip-rule="evenodd" d="M0.108329 11.1396C-0.0736629 12.5091 -0.0190653 13.8545 0.217524 15.1429C1.91915 16.3476 3.94836 17.1677 6.17776 17.4535C13.3391 18.3733 19.909 13.436 20.8554 6.42406C21.0374 5.05373 20.9828 3.70923 20.7371 2.41992C19.0355 1.21699 17.0154 0.396039 14.786 0.11022C7.61549 -0.809566 1.04559 4.12861 0.108329 11.1396Z" fill="#B1E6DC"/>
<path id="Fill 1098" fill-rule="evenodd" clip-rule="evenodd" d="M12.501 15.841C12.8318 13.3591 15.1003 11.6109 17.5862 11.9371C20.0627 12.2624 21.8113 14.5382 21.49 17.0201C21.1591 19.502 18.8906 21.2502 16.4047 20.924C13.9282 20.5987 12.1796 18.3229 12.501 15.841Z" fill="#C8F1F0"/>
<path id="Fill 1099" fill-rule="evenodd" clip-rule="evenodd" d="M10.176 5.71411C9.99911 7.11025 8.71422 8.09407 7.31761 7.90977C5.92101 7.72735 4.94338 6.44662 5.12028 5.05048C5.3065 3.65526 6.59138 2.67145 7.98799 2.85481C9.3846 3.03817 10.3622 4.31797 10.176 5.71411Z" fill="#C8F1F0"/>
<path id="Fill 1100" fill-rule="evenodd" clip-rule="evenodd" d="M167.635 97.9548C164.378 105.581 155.562 109.127 147.942 105.875C140.314 102.625 136.767 93.8066 140.015 86.1812C143.271 78.5541 152.088 75.009 159.707 78.2602C167.335 81.5113 170.882 90.3286 167.635 97.9548Z" fill="#80D6DC"/>
<path id="Fill 1101" fill-rule="evenodd" clip-rule="evenodd" d="M139.966 86.1477C139.319 87.6308 138.949 89.16 138.811 90.6847C140.336 92.5628 142.352 94.1083 144.775 95.1151C152.542 98.3543 161.53 94.8214 164.85 87.2232C165.497 85.7392 165.867 84.2108 166.006 82.6861C164.48 80.8081 162.464 79.2626 160.042 78.2558C152.274 75.0166 143.286 78.5486 139.966 86.1477Z" fill="#B1E6DC"/>
<path id="Fill 1102" fill-rule="evenodd" clip-rule="evenodd" d="M152.793 95.4509C153.832 92.8613 156.661 91.6562 159.114 92.7615C161.559 93.8659 162.694 96.8594 161.655 99.4499C160.607 102.039 157.778 103.244 155.334 102.14C152.889 101.036 151.754 98.0414 152.793 95.4509Z" fill="#C8F1F0"/>
<path id="Fill 1103" fill-rule="evenodd" clip-rule="evenodd" d="M153.293 83.0919C152.611 84.6743 150.783 85.4096 149.202 84.7356C147.622 84.0605 146.881 82.231 147.562 80.6476C148.234 79.0651 150.062 78.3288 151.643 79.0039C153.224 79.6789 153.965 81.5085 153.293 83.0919Z" fill="#C8F1F0"/>
</g>
</svg>
