<svg width="212" height="200" viewBox="0 0 212 200" fill="none" xmlns="http://www.w3.org/2000/svg">
<g id="Bubbles">
<path id="Fill 1080" fill-rule="evenodd" clip-rule="evenodd" d="M95.7446 127.53C101.39 132.943 110.358 132.755 115.767 127.113C121.185 121.468 120.999 112.504 115.353 107.09C109.708 101.678 100.748 101.861 95.3305 107.506C89.9215 113.149 90.1072 122.112 95.7446 127.53Z" fill="#80D6DC"/>
<path id="Fill 1081" fill-rule="evenodd" clip-rule="evenodd" d="M115.398 107.014C116.492 108.066 117.376 109.254 118.056 110.523C117.456 112.701 116.331 114.762 114.663 116.505C109.31 122.102 100.423 122.277 94.8215 116.892C93.728 115.841 92.8528 114.649 92.1724 113.38C92.7639 111.207 93.8892 109.145 95.5572 107.402C100.919 101.801 109.797 101.63 115.398 107.014Z" fill="#B1E6DC"/>
<path id="Fill 1082" fill-rule="evenodd" clip-rule="evenodd" d="M108.064 119.849C106.2 118.141 103.186 118.263 101.314 120.128C99.4503 121.99 99.4482 124.885 101.311 126.593C103.174 128.301 106.198 128.175 108.061 126.313C109.925 124.452 109.927 121.557 108.064 119.849Z" fill="#C8F1F0"/>
<path id="Fill 1083" fill-rule="evenodd" clip-rule="evenodd" d="M102.985 109.327C103.998 110.302 105.612 110.268 106.59 109.252C107.567 108.233 107.533 106.621 106.512 105.649C105.499 104.673 103.884 104.707 102.915 105.72C101.937 106.738 101.972 108.351 102.985 109.327Z" fill="#C8F1F0"/>
<path id="Fill 1084" fill-rule="evenodd" clip-rule="evenodd" d="M87.222 178.992C91.5117 183.107 98.3227 182.966 102.434 178.677C106.554 174.386 106.411 167.575 102.122 163.46C97.832 159.345 91.0207 159.485 86.901 163.778C82.7893 168.066 82.9324 174.877 87.222 178.992Z" fill="#80D6DC"/>
<path id="Fill 1085" fill-rule="evenodd" clip-rule="evenodd" d="M102.109 163.329C102.942 164.113 103.61 165.001 104.125 165.951C103.65 167.595 102.762 169.159 101.464 170.486C97.3009 174.747 90.461 174.953 86.1979 170.941C85.3652 170.157 84.6973 169.269 84.1911 168.316C84.666 166.671 85.5454 165.111 86.8436 163.784C91.0148 159.518 97.8464 159.317 102.109 163.329Z" fill="#B1E6DC"/>
<path id="Fill 1086" fill-rule="evenodd" clip-rule="evenodd" d="M96.338 172.948C94.9302 171.516 92.7485 171.5 91.4748 172.91C90.2015 174.321 90.3122 176.625 91.72 178.057C93.1362 179.487 95.3099 179.506 96.5833 178.095C97.8574 176.686 97.7542 174.378 96.338 172.948Z" fill="#C8F1F0"/>
<path id="Fill 1087" fill-rule="evenodd" clip-rule="evenodd" d="M92.6465 164.619C93.4301 165.379 94.6915 165.351 95.4463 164.562C96.2011 163.773 96.1815 162.515 95.3898 161.758C94.5977 161.001 93.3447 161.026 92.5818 161.819C91.827 162.608 91.8544 163.862 92.6465 164.619Z" fill="#C8F1F0"/>
<path id="Fill 1088" fill-rule="evenodd" clip-rule="evenodd" d="M140.327 88.784C148.742 89.5469 156.177 83.347 156.941 74.9353C157.704 66.5227 151.506 59.0835 143.091 58.3207C134.685 57.555 127.241 63.7576 126.478 72.1693C125.715 80.5819 131.913 88.022 140.327 88.784Z" fill="#80D6DC"/>
<path id="Fill 1089" fill-rule="evenodd" clip-rule="evenodd" d="M142.856 58.4005C144.479 58.5492 146.023 58.9527 147.446 59.5628C148.399 61.7972 148.836 64.2912 148.6 66.8819C147.846 75.2045 140.494 81.3372 132.171 80.5808C130.547 80.4321 129.003 80.0277 127.581 79.4185C126.628 77.1841 126.19 74.6901 126.427 72.0994C127.18 63.7768 134.541 57.6413 142.856 58.4005Z" fill="#B1E6DC"/>
<path id="Fill 1090" fill-rule="evenodd" clip-rule="evenodd" d="M145.135 73.9866C142.333 73.731 139.848 75.7996 139.596 78.6029C139.345 81.4062 141.408 83.8873 144.21 84.142C147.021 84.394 149.497 82.3281 149.749 79.5257C150.009 76.7188 147.937 74.2413 145.135 73.9866Z" fill="#C8F1F0"/>
<path id="Fill 1091" fill-rule="evenodd" clip-rule="evenodd" d="M134.326 68.3262C135.882 68.4686 137.259 67.3207 137.404 65.7609C137.542 64.2046 136.397 62.8261 134.841 62.6837C133.277 62.5448 131.9 63.6927 131.763 65.249C131.617 66.8088 132.77 68.1838 134.326 68.3262Z" fill="#C8F1F0"/>
<path id="Fill 1092" fill-rule="evenodd" clip-rule="evenodd" d="M65.0777 69.4137C66.3098 75.7063 72.4072 79.8136 78.7025 78.5864C84.9974 77.3584 89.1048 71.2598 87.8727 64.9672C86.6491 58.671 80.5514 54.5629 74.2565 55.7909C67.9619 57.0197 63.8542 63.1175 65.0777 69.4137Z" fill="#80D6DC"/>
<path id="Fill 1093" fill-rule="evenodd" clip-rule="evenodd" d="M87.9452 65.137C88.195 66.3798 88.2307 67.6134 88.0891 68.807C86.6544 69.9962 84.9073 70.852 82.9464 71.2298C76.6546 72.4373 70.5175 68.2575 69.2611 61.8854C69.0113 60.6426 68.9756 59.409 69.1172 58.2154C70.5519 57.0262 72.299 56.1704 74.26 55.7926C80.5602 54.5815 86.6888 58.7649 87.9452 65.137Z" fill="#B1E6DC"/>
<path id="Fill 1094" fill-rule="evenodd" clip-rule="evenodd" d="M76.7209 70.1429C76.2757 68.0042 74.2797 66.5649 72.2694 66.9248C70.2591 67.2847 68.9963 69.3077 69.4491 71.4421C69.8943 73.5809 71.8903 75.0202 73.9006 74.6603C75.9109 74.3004 77.1741 72.2783 76.7209 70.1429Z" fill="#C8F1F0"/>
<path id="Fill 1095" fill-rule="evenodd" clip-rule="evenodd" d="M78.3547 60.6378C78.601 61.8644 79.7848 62.6685 81.0152 62.4279C82.2455 62.1873 83.0415 61.0004 82.8042 59.771C82.5666 58.5408 81.3745 57.7412 80.1529 57.9781C78.9221 58.2179 78.1178 59.4093 78.3547 60.6378Z" fill="#C8F1F0"/>
<path id="Fill 1096" fill-rule="evenodd" clip-rule="evenodd" d="M137.209 23.7261C140.875 29.9198 148.864 31.9757 155.055 28.3174C161.255 24.6564 163.305 16.6681 159.647 10.4708C155.989 4.27441 148.001 2.21846 141.801 5.88033C135.61 9.5378 133.552 17.5297 137.209 23.7261Z" fill="#80D6DC"/>
<path id="Fill 1097" fill-rule="evenodd" clip-rule="evenodd" d="M159.573 10.289C160.278 11.4773 160.755 12.7362 161.043 14.0142C159.951 15.7899 158.406 17.3403 156.467 18.4779C150.241 22.1335 142.261 20.1696 138.639 14.0911C137.934 12.902 137.457 11.6439 137.177 10.3616C138.27 8.58751 139.806 7.03984 141.745 5.90229C147.98 2.24309 155.96 4.20781 159.573 10.289Z" fill="#B1E6DC"/>
<path id="Fill 1098" fill-rule="evenodd" clip-rule="evenodd" d="M150.018 19.4754C148.74 17.3222 145.968 16.6042 143.809 17.8795C141.659 19.1503 140.943 21.9296 142.213 24.0865C143.491 26.2396 146.263 26.9576 148.422 25.6823C150.572 24.4116 151.288 21.6322 150.018 19.4754Z" fill="#C8F1F0"/>
<path id="Fill 1099" fill-rule="evenodd" clip-rule="evenodd" d="M148.184 9.24832C148.895 10.4631 150.462 10.864 151.675 10.1465C152.888 9.43081 153.285 7.86922 152.574 6.65441C151.856 5.44411 150.288 5.04327 149.075 5.75985C147.862 6.47643 147.465 8.03717 148.184 9.24832Z" fill="#C8F1F0"/>
<path id="Fill 1100" fill-rule="evenodd" clip-rule="evenodd" d="M39.5378 155.868C45.5251 161.606 55.0261 161.408 60.7587 155.428C66.5004 149.445 66.3031 139.943 60.3245 134.203C54.3369 128.465 44.8363 128.663 39.1033 134.642C33.362 140.626 33.5589 150.128 39.5378 155.868Z" fill="#80D6DC"/>
<path id="Fill 1101" fill-rule="evenodd" clip-rule="evenodd" d="M60.3557 134.153C61.5329 135.263 62.4731 136.525 63.1989 137.873C62.5323 140.199 61.2844 142.411 59.4509 144.288C53.577 150.315 43.9234 150.591 37.889 144.905C36.7113 143.794 35.7715 142.533 35.0458 141.185C35.7124 138.859 36.9603 136.646 38.7938 134.77C44.6677 128.743 54.3208 128.465 60.3557 134.153Z" fill="#B1E6DC"/>
<path id="Fill 1102" fill-rule="evenodd" clip-rule="evenodd" d="M52.2066 147.743C50.235 145.769 47.1603 145.77 45.3373 147.749C43.522 149.724 43.6525 152.923 45.6244 154.898C47.604 156.869 50.6784 156.867 52.494 154.893C54.3093 152.918 54.1785 149.718 52.2066 147.743Z" fill="#C8F1F0"/>
<path id="Fill 1103" fill-rule="evenodd" clip-rule="evenodd" d="M46.8982 136.571C48.1461 137.759 50.116 137.718 51.3056 136.478C52.4949 135.237 52.4588 133.263 51.2105 132.074C49.9717 130.882 48.0014 130.922 46.8122 132.163C45.6229 133.404 45.659 135.378 46.8982 136.571Z" fill="#C8F1F0"/>
</g>
</svg>
